<?xml version="1.0" encoding="UTF-8" standalone="no"?>
<svg width="334px" height="334px" viewBox="0 0 334 334" version="1.1" xmlns="http://www.w3.org/2000/svg" xmlns:xlink="http://www.w3.org/1999/xlink">
    <!-- Generator: Sketch 49.3 (51167) - http://www.bohemiancoding.com/sketch -->
    <title>Group 2</title>
    <desc>Created with Sketch.</desc>
    <defs></defs>
    <g id="Page-1" stroke="none" stroke-width="1" fill="none" fill-rule="evenodd">
        <g id="Artboard-Copy-2" transform="translate(-63.000000, -64.000000)">
            <g id="Group-2" transform="translate(58.000000, 58.000000)">
                <g id="Group" transform="translate(30.000000, 60.000000)" fill="#333333">
                    <path d="M45,9.05330086 L45,41.25 C45,43.3210678 43.3210678,45 41.25,45 L9.05330086,45 C6.98223305,45 5.30330086,43.3210678 5.30330086,41.25 C5.30330086,40.2554382 5.69838901,39.301611 6.40165043,38.5983496 L38.5983496,6.40165043 C40.0628157,4.93718434 42.4371843,4.93718434 43.9016504,6.40165043 C44.6049118,7.10491185 45,8.05873902 45,9.05330086 Z" id="Rectangle"></path>
                    <rect id="Rectangle" x="0" y="120" width="45" height="45" rx="3.75"></rect>
                    <rect id="Rectangle" x="0" y="60" width="45" height="45" rx="3.75"></rect>
                    <path d="M9.05330086,180 L41.25,180 C43.3210678,180 45,181.678932 45,183.75 L45,215.946699 C45,218.017767 43.3210678,219.696699 41.25,219.696699 C40.2554382,219.696699 39.301611,219.301611 38.5983496,218.59835 L6.40165043,186.40165 C4.93718434,184.937184 4.93718434,182.562816 6.40165043,181.09835 C7.10491185,180.395088 8.05873902,180 9.05330086,180 Z" id="Rectangle" transform="translate(25.151650, 199.848350) scale(-1, 1) translate(-25.151650, -199.848350) "></path>
                    <path d="M165,9.93378218 L165,41.25 C165,43.3210678 163.321068,45 161.25,45 L123.75,45 C121.678932,45 120,43.3210678 120,41.25 L120,9.74388481 C120,7.672817 121.678932,5.99388481 123.75,5.99388481 C124.689799,5.99388481 125.59534,6.34676229 126.287341,6.98265309 L140.168155,19.7379599 C141.632621,21.202426 144.006989,21.202426 145.471456,19.7379599 L158.668601,7.2136944 C160.170864,5.78802692 162.54442,5.85011986 163.970088,7.35238286 C164.631352,8.04917437 165,8.97316312 165,9.93378218 Z" id="Combined-Shape"></path>
                    <rect id="Rectangle" x="120" y="120" width="45" height="45" rx="3.75"></rect>
                    <rect id="Rectangle" x="120" y="60" width="45" height="45" rx="3.75"></rect>
                    <path d="M129.053301,180 L161.25,180 C163.321068,180 165,181.678932 165,183.75 L165,215.946699 C165,218.017767 163.321068,219.696699 161.25,219.696699 C160.255438,219.696699 159.301611,219.301611 158.59835,218.59835 L126.40165,186.40165 C124.937184,184.937184 124.937184,182.562816 126.40165,181.09835 C127.104912,180.395088 128.058739,180 129.053301,180 Z" id="Rectangle"></path>
                    <rect id="Rectangle" x="60" y="0" width="45" height="45" rx="3.75"></rect>
                    <rect id="Rectangle" x="60" y="120" width="45" height="45" rx="3.75"></rect>
                    <rect id="Rectangle" x="180" y="0" width="45" height="45" rx="3.75"></rect>
                    <rect id="Rectangle" x="180" y="180" width="45" height="45" rx="3.75"></rect>
                    <path d="M246.40165,6.40165043 L278.59835,38.5983496 C280.062816,40.0628157 280.062816,42.4371843 278.59835,43.9016504 C277.895088,44.6049118 276.941261,45 275.946699,45 L243.75,45 C241.678932,45 240,43.3210678 240,41.25 L240,9.05330086 C240,6.98223305 241.678932,5.30330086 243.75,5.30330086 C244.744562,5.30330086 245.698389,5.69838901 246.40165,6.40165043 Z" id="Rectangle"></path>
                    <rect id="Rectangle" x="240" y="120" width="45" height="45" rx="3.75"></rect>
                    <rect id="Rectangle" x="240" y="60" width="45" height="45" rx="3.75"></rect>
                    <path d="M243.75,180 L275.946699,180 C278.017767,180 279.696699,181.678932 279.696699,183.75 C279.696699,184.744562 279.301611,185.698389 278.59835,186.40165 L246.40165,218.59835 C244.937184,220.062816 242.562816,220.062816 241.09835,218.59835 C240.395088,217.895088 240,216.941261 240,215.946699 L240,183.75 C240,181.678932 241.678932,180 243.75,180 Z" id="Rectangle"></path>
                </g>
                <rect id="Rectangle-2" stroke="#333333" stroke-width="4.5" x="2.25" y="2.25" width="340.5" height="340.5"></rect>
            </g>
        </g>
    </g>
</svg>